<svg aria-hidden="true" style="width:0;height:0;position:absolute;overflow:hidden" xmlns="http://www.w3.org/2000/svg"><defs><symbol id="icon-basket" viewBox="0 0 32 32"><path fill="#db9351" style="fill:var(--color1,#db9351)" d="m32.046 28.322-2.24-16.002a3.14 3.14 0 0 0-3.109-2.722l-.096.001h.005-2.56v-1.6a7.733 7.733 0 0 0-8.015-8.001h.014-.078a7.923 7.923 0 0 0-7.923 7.923v.083V8v1.6H5.927a3.803 3.803 0 0 0-3.637 2.694l-.007.027-2.24 16.002a3.24 3.24 0 0 0 3.2 3.68h25.604a3.24 3.24 0 0 0 3.198-3.697l.002.017zM11.243 7.999l-.001-.087a4.715 4.715 0 0 1 4.806-4.714h-.005a4.451 4.451 0 0 1 4.8 4.817l.001-.016v1.6h-9.601zm15.682 20.803H5.162l-.058.001a1.556 1.556 0 0 1-1.542-1.769l-.001.008 1.76-12.802c.126-.794.787-1.4 1.596-1.44h1.124V16a1.512 1.512 0 0 0 1.604 1.6h-.004a1.512 1.512 0 0 0 1.6-1.604V16v-3.2h9.601V16a1.6 1.6 0 1 0 3.2 0v-3.2h1.12c.813.04 1.474.646 1.599 1.431l.001.01 1.76 12.802a1.482 1.482 0 0 1-1.606 1.759l.006.001z"/></symbol><symbol id="icon-check-gren" viewBox="0 0 45 32"><path fill="#abdb51" style="fill:var(--color2,#abdb51)" d="M16.837 32.011 0 15.174l3.375-3.377 13.467 13.47L42.097.012l3.375 3.363z"/></symbol><symbol id="icon-dot" viewBox="0 0 32 32"><path fill="#abdb51" style="fill:var(--color2,#abdb51)" d="M21.565 16a5.565 5.565 0 1 1-11.13 0 5.565 5.565 0 0 1 11.13 0z"/></symbol><symbol id="icon-square" viewBox="0 0 32 32"><path fill="none" stroke="#fff" style="stroke:var(--color3,#fff)" stroke-width="2" d="M0 0h32v32H0z"/><path fill="none" stroke="#fff" style="stroke:var(--color3,#fff)" stroke-width="2" d="M1 1h30v30H1z"/></symbol><symbol id="icon-check-white" viewBox="0 0 40 32"><path fill="#fff" style="fill:var(--color3,#fff)" d="M16.024 31.928 0 15.949l8.001-8.007 8.074 8.08L32.111-.002l8.001 8.007-24.008 24.008z"/></symbol><symbol id="icon-people" viewBox="0 0 32 32"><path fill="#fff" style="fill:var(--color3,#fff)" d="M21.986 17.09c2.221-1.793 3.63-4.515 3.63-7.566a9.87 9.87 0 0 0-.11-1.468l.007.054C24.789 3.9 21.432.651 17.226.098l-.049-.005A9.374 9.374 0 0 0 6.435 9.559v-.01a9.922 9.922 0 0 0 3.514 7.53l.014.012C4.45 19.163.505 24.185.031 30.184l-.003.053a1.559 1.559 0 0 0 1.545 1.765l.063-.001h-.003a1.707 1.707 0 0 0 1.604-1.433l.001-.01c.411-6.378 5.685-11.396 12.131-11.396.241 0 .481.007.719.021l-.033-.002c.181-.01.393-.015.606-.015 6.466 0 11.763 5.01 12.219 11.36l.002.04a1.583 1.583 0 0 0 1.575 1.443h.032-.002l.06.001a1.559 1.559 0 0 0 1.544-1.773l.001.008a15.488 15.488 0 0 0-9.999-13.12l-.107-.035zm-5.932-1.119a6.422 6.422 0 1 1 6.422-6.422 6.432 6.432 0 0 1-6.421 6.422h-.001z"/></symbol><symbol id="icon-arrow" viewBox="0 0 108 32"><path fill="#fff" style="fill:var(--color3,#fff)" d="m91.446 30.478 12.626-12.637H-.007v-2.155h104.094L89.924 1.521 91.433.012l16.771 16.758-15.243 15.243z"/></symbol></defs></svg>