<svg aria-hidden="true" style="position: absolute; width: 0; height: 0; overflow: hidden;" version="1.1" xmlns="http://www.w3.org/2000/svg" xmlns:xlink="http://www.w3.org/1999/xlink">
<defs>
<symbol id="icon-basket" viewBox="0 0 32 32">
<path fill="#db9351" style="fill: var(--color1, #db9351)" d="M32.046 28.322l-2.24-16.002c-0.212-1.545-1.523-2.722-3.109-2.722-0.032 0-0.064 0.001-0.096 0.001l0.005-0h-2.56v-1.6c0.003-0.081 0.005-0.177 0.005-0.273 0-4.271-3.462-7.733-7.733-7.733-0.096 0-0.192 0.002-0.287 0.005l0.014-0c-0.023-0-0.051-0-0.078-0-4.376 0-7.923 3.547-7.923 7.923 0 0.028 0 0.055 0 0.083l-0-0.004v1.6h-2.080c-0.011-0-0.024-0-0.037-0-1.714 0-3.163 1.135-3.637 2.694l-0.007 0.027-2.24 16.002c-0.019 0.132-0.030 0.285-0.030 0.44 0 1.786 1.445 3.235 3.23 3.24h25.604c1.785-0.006 3.23-1.454 3.23-3.24 0-0.155-0.011-0.308-0.032-0.457l0.002 0.017zM11.243 7.999c-0.001-0.026-0.001-0.056-0.001-0.087 0-2.604 2.111-4.715 4.715-4.715 0.031 0 0.061 0 0.091 0.001l-0.005-0c0.109-0.010 0.237-0.015 0.365-0.015 2.458 0 4.451 1.993 4.451 4.451 0 0.128-0.005 0.256-0.016 0.381l0.001-0.016v1.6h-9.601zM26.925 28.802h-21.763c-0.017 0.001-0.037 0.001-0.058 0.001-0.859 0-1.556-0.697-1.556-1.556 0-0.072 0.005-0.143 0.014-0.213l-0.001 0.008 1.76-12.802c0.126-0.794 0.787-1.4 1.596-1.44l0.004-0h1.12v3.2c-0.002 0.027-0.003 0.059-0.003 0.091 0 0.835 0.677 1.512 1.512 1.512 0.032 0 0.064-0.001 0.095-0.003l-0.004 0c0.027 0.002 0.059 0.003 0.091 0.003 0.835 0 1.512-0.677 1.512-1.512 0-0.032-0.001-0.064-0.003-0.095l0 0.004v-3.2h9.601v3.2c0 0.884 0.716 1.6 1.6 1.6s1.6-0.716 1.6-1.6v0-3.2h1.12c0.813 0.040 1.474 0.646 1.599 1.431l0.001 0.010 1.76 12.802c0.018 0.086 0.028 0.184 0.028 0.285 0 0.819-0.664 1.482-1.482 1.482-0.051 0-0.102-0.003-0.152-0.008l0.006 0.001z"></path>
</symbol>
<symbol id="icon-check-gren" viewBox="0 0 45 32">
<path fill="#abdb51" style="fill: var(--color2, #abdb51)" d="M16.837 32.011l-16.837-16.837 3.375-3.377 13.467 13.47 25.255-25.255 3.375 3.363z"></path>
</symbol>
<symbol id="icon-dot" viewBox="0 0 32 32">
<path fill="#abdb51" style="fill: var(--color2, #abdb51)" d="M21.565 16c0 3.074-2.492 5.565-5.565 5.565s-5.565-2.492-5.565-5.565c0-3.074 2.492-5.565 5.565-5.565s5.565 2.492 5.565 5.565z"></path>
</symbol>
<symbol id="icon-square" viewBox="0 0 32 32">
<path fill="none" stroke="#fff" style="stroke: var(--color3, #fff)" stroke-linejoin="miter" stroke-linecap="butt" stroke-miterlimit="4" stroke-width="2" d="M0 0h32v32h-32z"></path>
<path fill="none" stroke="#fff" style="stroke: var(--color3, #fff)" stroke-linejoin="miter" stroke-linecap="butt" stroke-miterlimit="4" stroke-width="2" d="M1 1h30v30h-30z"></path>
</symbol>
<symbol id="icon-check-white" viewBox="0 0 40 32">
<path fill="#fff" style="fill: var(--color3, #fff)" d="M16.024 31.928l-16.024-15.979 8.001-8.007 8.074 8.080 16.036-16.024 8.001 8.007-24.008 24.008z"></path>
</symbol>
<symbol id="icon-people" viewBox="0 0 32 32">
<path fill="#fff" style="fill: var(--color3, #fff)" d="M21.986 17.090c2.221-1.793 3.63-4.515 3.63-7.566 0-0.499-0.038-0.989-0.11-1.468l0.007 0.054c-0.724-4.21-4.081-7.459-8.287-8.012l-0.049-0.005c-0.412-0.064-0.887-0.101-1.37-0.101-5.177 0-9.374 4.197-9.374 9.374 0 0.064 0.001 0.129 0.002 0.193l-0-0.010c0.017 3.019 1.378 5.718 3.514 7.53l0.014 0.012c-5.513 2.072-9.458 7.094-9.932 13.093l-0.003 0.053c-0.009 0.062-0.014 0.133-0.014 0.206 0 0.861 0.698 1.559 1.559 1.559 0.021 0 0.042-0 0.063-0.001l-0.003 0c0.816-0.040 1.479-0.647 1.604-1.433l0.001-0.010c0.411-6.378 5.685-11.396 12.131-11.396 0.241 0 0.481 0.007 0.719 0.021l-0.033-0.002c0.181-0.010 0.393-0.015 0.606-0.015 6.466 0 11.763 5.010 12.219 11.36l0.002 0.040c0.073 0.812 0.751 1.443 1.575 1.443 0.011 0 0.021-0 0.032-0l-0.002 0c0.018 0.001 0.039 0.001 0.060 0.001 0.861 0 1.559-0.698 1.559-1.559 0-0.073-0.005-0.144-0.015-0.214l0.001 0.008c-0.555-6.073-4.55-11.090-9.999-13.12l-0.107-0.035zM16.054 15.971c-3.547 0-6.422-2.875-6.422-6.422s2.875-6.422 6.422-6.422c3.547 0 6.422 2.875 6.422 6.422v0c-0.006 3.544-2.877 6.416-6.421 6.422h-0.001z"></path>
</symbol>
<symbol id="icon-arrow" viewBox="0 0 108 32">
<path fill="#fff" style="fill: var(--color3, #fff)" d="M91.446 30.478l12.626-12.637h-104.079v-2.155h104.094l-14.163-14.165 1.509-1.509 16.771 16.758-15.243 15.243z"></path>
</symbol>
</defs>
</svg>
